# xmcd CD database file
# Copyright (C) 1996 Ti Kan
#
# Track frame offsets:
# 	150
# 	12005
# 	25155
# 	38555
# 	48797
# 	63765
# 	74480
# 	88705
# 	103132
# 	115987
#
# Disc length: 1688 seconds
#
# Revision: 1
# Processed by: cddbd v1.4b41PL1 Copyright (c) Steve Scherf et al.
# Submitted via: DiscPlay 3.4.1
#
DISCID=7706960a
DTITLE=Tennessee Ernie Ford - Country Gospel Classics Volume 2
DYEAR=1900
DGENRE=
TTITLE0=How Great Thou Art
TTITLE1=Sweet Hour Of Prayer
TTITLE2=I Need Thee Every Hour
TTITLE3=Oh How I Love Jesus
TTITLE4=There'll Be Peace In The Valley
TTITLE5=Just A Closer Walk With Thee
TTITLE6=Softly And Tenderly
TTITLE7=Take My Hand, Precious Lord
TTITLE8=Precious Memories
TTITLE9=Wayfaring Pilgrim
EXTD=
EXTT0=
EXTT1=
EXTT2=
EXTT3=
EXTT4=
EXTT5=
EXTT6=
EXTT7=
EXTT8=
EXTT9=
PLAYORDER=
